<svg width="34" height="34" viewBox="0 0 34 34" fill="none" xmlns="http://www.w3.org/2000/svg">
<path d="M25.7083 19.5833H24.5892L24.1925 19.2008C25.6288 17.5349 26.4182 15.408 26.4167 13.2083C26.4167 11.3871 25.8766 9.60676 24.8648 8.09246C23.853 6.57816 22.4148 5.3979 20.7322 4.70095C19.0496 4.00399 17.1981 3.82163 15.4119 4.17694C13.6256 4.53225 11.9849 5.40925 10.6971 6.69706C9.40925 7.98487 8.53225 9.62564 8.17694 11.4119C7.82163 13.1981 8.00399 15.0496 8.70095 16.7322C9.3979 18.4148 10.5782 19.853 12.0925 20.8648C13.6068 21.8766 15.3871 22.4167 17.2083 22.4167C19.4892 22.4167 21.5858 21.5808 23.2008 20.1925L23.5833 20.5892V21.7083L30.6667 28.7775L32.7775 26.6667L25.7083 19.5833ZM17.2083 19.5833C13.6808 19.5833 10.8333 16.7358 10.8333 13.2083C10.8333 9.68084 13.6808 6.83334 17.2083 6.83334C20.7358 6.83334 23.5833 9.68084 23.5833 13.2083C23.5833 16.7358 20.7358 19.5833 17.2083 19.5833Z" fill="white"/>
<rect x="1" y="16" width="5" height="3" fill="white"/>
<rect x="1" y="21" width="8" height="3" fill="white"/>
<rect x="1" y="26" width="15" height="3" fill="white"/>
</svg>
