<svg width="34" height="34" viewBox="0 0 34 34" fill="none" xmlns="http://www.w3.org/2000/svg">
<g clip-path="url(#clip0_1355_4999)">
<path d="M19.6356 8.73248C20.5081 7.95818 21.5331 7.37115 22.6458 7.0083C22.964 7.40316 23.3679 7.72191 23.8276 7.94083C24.2872 8.15975 24.7908 8.27322 25.3008 8.27281C25.8109 8.27322 26.3144 8.15975 26.7741 7.94083C27.2337 7.72191 27.6377 7.40316 27.9558 7.0083C29.0686 7.37115 30.0935 7.95818 30.9661 8.73248C30.7804 9.20263 30.704 9.70817 30.7425 10.2116C30.7811 10.715 30.9336 11.2033 31.1888 11.6403C31.4434 12.0782 31.7944 12.4536 32.2156 12.7385C32.6369 13.0235 33.1176 13.2107 33.622 13.2862C33.8604 14.4218 33.8604 15.5939 33.622 16.7295C32.6361 16.8794 31.7267 17.4536 31.1888 18.3754C30.9335 18.8125 30.7809 19.301 30.7423 19.8046C30.7038 20.3082 30.7803 20.8139 30.9661 21.2841C30.0934 22.0581 29.0685 22.6449 27.9558 23.0075C27.6376 22.6127 27.2336 22.2942 26.774 22.0754C26.3143 21.8566 25.8108 21.7433 25.3008 21.7438C24.7908 21.7434 24.2872 21.8569 23.8276 22.0758C23.3679 22.2947 22.964 22.6134 22.6458 23.0083C21.5331 22.6457 20.5082 22.059 19.6356 21.285C19.8214 20.8147 19.8979 20.309 19.8593 19.8054C19.8208 19.3019 19.6682 18.8134 19.4129 18.3763C19.1582 17.9386 18.8071 17.5634 18.3859 17.2786C17.9646 16.9938 17.484 16.8067 16.9797 16.7312C16.7411 15.5953 16.7411 14.423 16.9797 13.2871C17.4841 13.2115 17.9648 13.0243 18.386 12.7394C18.8073 12.4544 19.1583 12.079 19.4129 11.6412C19.668 11.2042 19.8206 10.7158 19.8591 10.2124C19.8977 9.70901 19.8212 9.20263 19.6356 8.73248ZM26.5756 17.1951C26.8679 17.0305 27.1245 16.8102 27.3305 16.5469C27.5365 16.2837 27.6879 15.9827 27.776 15.6612C27.8641 15.3398 27.8872 15.0043 27.8438 14.674C27.8005 14.3437 27.6916 14.0251 27.5235 13.7366C27.3554 13.4482 27.1313 13.1955 26.8642 12.9932C26.5971 12.7909 26.2922 12.6429 25.9672 12.5577C25.6421 12.4726 25.3032 12.452 24.9701 12.4971C24.6369 12.5423 24.3161 12.6522 24.026 12.8207C23.4452 13.158 23.0226 13.7092 22.8505 14.3539C22.6784 14.9987 22.7708 15.6848 23.1074 16.2624C23.4441 16.8399 23.9977 17.2622 24.6474 17.4369C25.2972 17.6117 25.9904 17.5247 26.5756 17.1951Z" fill="white" fill-opacity="0.4"/>
<path d="M21.3159 28.0018L12.0402 13.7075C13.3302 11.7317 13.3958 9.10765 12.0011 6.95823C10.5329 4.69568 7.81924 3.73448 5.36906 4.29411L8.52567 9.15859L5.14336 11.3785L1.89367 6.49447C0.304737 8.50519 0.180108 11.4099 1.6483 13.6724C3.04308 15.8219 5.45782 16.8179 7.77559 16.4259L17.0513 30.7201C17.3449 31.1726 17.9034 31.29 18.3544 30.994L20.9475 29.2921C21.4915 29.0157 21.6292 28.3607 21.3159 28.0018Z" fill="white"/>
</g>
<defs>
<clipPath id="clip0_1355_4999">
<rect width="34" height="34" fill="white"/>
</clipPath>
</defs>
</svg>
