<svg width="34" height="34" viewBox="0 0 34 34" fill="none" xmlns="http://www.w3.org/2000/svg">
<path d="M32 24.6321C30.5757 28.2936 26.7775 30.9999 22.5045 30.9999C18.2316 30.9999 14.4334 28.2936 13.009 24.6321C14.4334 20.9705 18.2316 18.2642 22.5045 18.2642C26.7775 18.2642 30.5757 20.9705 32 24.6321ZM26.461 24.6321C26.461 22.4033 24.7201 20.6521 22.5045 20.6521C20.2889 20.6521 18.5481 22.4033 18.5481 24.6321C18.5481 26.8608 20.2889 28.612 22.5045 28.612C24.7201 28.612 26.461 26.8608 26.461 24.6321ZM22.5045 23.0401C21.555 23.0401 20.9219 23.6769 20.9219 24.6321C20.9219 25.5872 21.555 26.224 22.5045 26.224C23.4541 26.224 24.0871 25.5872 24.0871 24.6321C24.0871 23.6769 23.4541 23.0401 22.5045 23.0401Z" fill="white"/>
<path d="M10.3186 26.2241H4.16516C2.42432 26.2241 1 24.7913 1 23.0401V6.18395C1 4.43278 2.42432 3 4.16516 3H11.4264L14.5916 6.18395H27.2523C28.9931 6.18395 30.4174 7.61672 30.4174 9.36789V17.6274C28.2018 16.0355 25.5114 15.0803 22.5045 15.0803C16.9655 15.0803 12.0595 18.4234 10.0021 23.5177L9.52733 24.6321L10.0021 25.7465C10.1604 25.9057 10.1604 26.0649 10.3186 26.2241Z" fill="#1EFAD2"/>
</svg>
