<svg width="524" height="126" viewBox="0 0 524 126" fill="none" xmlns="http://www.w3.org/2000/svg">
<rect y="108" width="18" height="18" fill="#1EFAD2"/>
<rect x="108" y="18" width="18" height="18" fill="#1EFAD2"/>
<rect x="18" y="90" width="18" height="18" fill="white"/>
<rect x="272" y="90" width="18" height="18" fill="white"/>
<rect x="272" y="108" width="18" height="18" fill="white" fill-opacity="0.8"/>
<rect x="344" y="90" width="18" height="18" fill="white"/>
<rect x="344" y="108" width="18" height="18" fill="white" fill-opacity="0.9"/>
<rect x="18" y="72" width="18" height="18" fill="white"/>
<rect x="272" y="72" width="18" height="18" fill="white"/>
<rect x="146" y="90" width="18" height="18" fill="white" fill-opacity="0.9"/>
<rect x="18" y="54" width="18" height="18" fill="white" fill-opacity="0.8"/>
<rect x="344" y="72" width="18" height="18" fill="white"/>
<rect x="272" y="54" width="18" height="18" fill="white"/>
<rect x="18" y="36" width="18" height="18" fill="white"/>
<rect x="272" y="36" width="18" height="18" fill="white"/>
<rect x="146" y="72" width="18" height="18" fill="white"/>
<rect x="18" y="18" width="18" height="18" fill="white"/>
<rect x="344" y="54" width="18" height="18" fill="white" fill-opacity="0.8"/>
<rect x="146" y="54" width="18" height="18" fill="white"/>
<rect x="344" y="36" width="18" height="18" fill="white"/>
<rect x="146" y="36" width="18" height="18" fill="white"/>
<rect x="36" y="90" width="18" height="18" fill="white" fill-opacity="0.6"/>
<rect x="146" y="18" width="18" height="18" fill="white"/>
<rect x="36" y="72" width="18" height="18" fill="white"/>
<rect x="90" y="90" width="18" height="18" fill="white"/>
<rect x="36" y="54" width="18" height="18" fill="white"/>
<rect x="290" y="90" width="18" height="18" fill="white"/>
<rect x="218" y="90" width="18" height="18" fill="white" fill-opacity="0.85"/>
<rect x="290" y="72" width="18" height="18" fill="white"/>
<rect x="36" y="36" width="18" height="18" fill="white"/>
<rect x="290" y="54" width="18" height="18" fill="white" fill-opacity="0.85"/>
<rect x="90" y="72" width="18" height="18" fill="white" fill-opacity="0.85"/>
<rect x="218" y="72" width="18" height="18" fill="white"/>
<rect x="290" y="36" width="18" height="18" fill="white"/>
<rect x="36" y="18" width="18" height="18" fill="white"/>
<rect x="362" y="90" width="18" height="18" fill="white" fill-opacity="0.8"/>
<rect x="164" y="90" width="18" height="18" fill="white"/>
<rect x="362" y="72" width="18" height="18" fill="white"/>
<rect x="164" y="72" width="18" height="18" fill="#1EFAD2"/>
<rect x="362" y="54" width="18" height="18" fill="white"/>
<rect x="18" width="18" height="18" fill="white"/>
<rect x="398" width="18" height="18" fill="white"/>
<rect x="398" y="108" width="18" height="18" fill="#1EFAD2"/>
<rect x="164" y="54" width="18" height="18" fill="white"/>
<rect x="362" y="36" width="18" height="18" fill="white"/>
<rect x="290" y="18" width="18" height="18" fill="white" fill-opacity="0.8"/>
<rect x="308" y="18" width="18" height="18" fill="white"/>
<rect x="308" y="54" width="18" height="18" fill="white"/>
<rect x="326" y="18" width="18" height="18" fill="white"/>
<rect x="308" width="18" height="18" fill="white"/>
<rect x="326" y="54" width="18" height="18" fill="#1EFAD2"/>
<rect x="326" width="18" height="18" fill="white" fill-opacity="0.9"/>
<rect x="344" y="18" width="18" height="18" fill="white"/>
<rect x="164" y="36" width="18" height="18" fill="white" fill-opacity="0.8"/>
<rect x="54" y="54" width="18" height="18" fill="white"/>
<rect x="164" y="18" width="18" height="18" fill="white"/>
<rect x="90" y="36" width="18" height="18" fill="white"/>
<rect x="218" y="36" width="18" height="18" fill="white"/>
<rect x="36" width="18" height="18" fill="white" fill-opacity="0.8"/>
<rect x="90" y="18" width="18" height="18" fill="white"/>
<rect x="416" width="18" height="18" fill="white" fill-opacity="0.8"/>
<rect x="54" width="18" height="18" fill="white"/>
<rect x="434" width="18" height="18" fill="white"/>
<rect x="416" y="108" width="18" height="18" fill="white"/>
<rect x="218" y="18" width="18" height="18" fill="white"/>
<rect x="434" y="108" width="18" height="18" fill="white"/>
<rect x="182" width="18" height="18" fill="white"/>
<rect x="54" y="108" width="18" height="18" fill="white"/>
<rect x="182" y="108" width="18" height="18" fill="white"/>
<rect x="108" y="90" width="18" height="18" fill="white"/>
<rect x="236" y="90" width="18" height="18" fill="white"/>
<rect x="108" y="72" width="18" height="18" fill="white"/>
<rect x="236" y="72" width="18" height="18" fill="white"/>
<rect x="236" y="54" width="18" height="18" fill="white" fill-opacity="0.8"/>
<rect x="36" y="108" width="18" height="18" fill="white"/>
<rect x="164" width="18" height="18" fill="white" fill-opacity="0.85"/>
<rect x="72" y="54" width="18" height="18" fill="white"/>
<rect x="72" width="18" height="18" fill="white"/>
<rect x="290" y="108" width="18" height="18" fill="white"/>
<rect x="452" width="18" height="18" fill="white" fill-opacity="0.85"/>
<rect x="90" width="18" height="18" fill="white"/>
<rect x="470" width="18" height="18" fill="white"/>
<rect x="90" y="54" width="18" height="18" fill="white"/>
<rect x="218" y="54" width="18" height="18" fill="white"/>
<rect x="452" y="108" width="18" height="18" fill="white" fill-opacity="0.9"/>
<rect x="200" width="18" height="18" fill="white"/>
<rect x="506" width="18" height="18" fill="#1EFAD2"/>
<rect x="470" y="108" width="18" height="18" fill="white"/>
<rect x="452" y="36" width="18" height="18" fill="white"/>
<rect x="470" y="18" width="18" height="18" fill="white"/>
<rect x="434" y="54" width="18" height="18" fill="white"/>
<rect x="416" y="72" width="18" height="18" fill="white"/>
<rect x="398" y="90" width="18" height="18" fill="white"/>
<rect x="488" y="108" width="18" height="18" fill="white" fill-opacity="0.8"/>
<rect x="470" y="36" width="18" height="18" fill="white"/>
<rect x="488" y="18" width="18" height="18" fill="white"/>
<rect x="452" y="54" width="18" height="18" fill="white"/>
<rect x="434" y="72" width="18" height="18" fill="white" fill-opacity="0.8"/>
<rect x="416" y="90" width="18" height="18" fill="white"/>
<rect x="218" width="18" height="18" fill="white"/>
<rect x="108" y="36" width="18" height="18" fill="white"/>
<rect x="236" y="36" width="18" height="18" fill="white"/>
<rect x="236" y="18" width="18" height="18" fill="white" fill-opacity="0.9"/>
<rect x="362" y="108" width="18" height="18" fill="white"/>
<rect x="164" y="108" width="18" height="18" fill="white"/>
<rect x="72" y="108" width="18" height="18" fill="white" fill-opacity="0.8"/>
<rect x="200" y="108" width="18" height="18" fill="white" fill-opacity="0.6"/>
<rect x="90" y="108" width="18" height="18" fill="white"/>
<rect x="218" y="108" width="18" height="18" fill="white"/>
</svg>
