<svg width="18" height="29" viewBox="0 0 18 29" fill="none" xmlns="http://www.w3.org/2000/svg">
<path d="M0.5049 0.0100098L0.454224 0.0590607V5.01164L0.5049 5.06233H5.45749L5.50655 5.01164V0.0590607L5.45749 0.0100098H0.5049Z" fill="white"/>
<path d="M6.48741 5.99261L6.43835 6.0433V10.9942L6.48741 11.0449H11.44L11.4907 10.9942V6.0433L11.44 5.99261H6.48741Z" fill="white"/>
<path d="M17.4225 11.9752H12.47L12.4209 12.0258V16.9784L12.47 17.0275H17.4225L17.4732 16.9784V12.0258L17.4225 11.9752Z" fill="white"/>
<path d="M6.48741 17.9598L6.43835 18.0089V22.9615L6.48741 23.0122H11.44L11.4907 22.9615V18.0089L11.44 17.9598H6.48741Z" fill="white"/>
<path d="M0.5049 23.9424L0.454224 23.9914V28.944L0.5049 28.9947H5.45749L5.50655 28.944V23.9914L5.45749 23.9424H0.5049Z" fill="white"/>
</svg>
