<svg width="18" height="29" viewBox="0 0 18 29" fill="none" xmlns="http://www.w3.org/2000/svg">
<path d="M17.4951 0.0100098L17.5458 0.0590607V5.01164L17.4951 5.06233H12.5425L12.4934 5.01164V0.0590607L12.5425 0.0100098H17.4951Z" fill="white"/>
<path d="M11.5126 5.99261L11.5616 6.0433V10.9942L11.5126 11.0449H6.56002L6.50932 10.9942V6.0433L6.56002 5.99261H11.5126Z" fill="white"/>
<path d="M0.577451 11.9752H5.53004L5.5791 12.0258V16.9784L5.53004 17.0275H0.577451L0.526775 16.9784V12.0258L0.577451 11.9752Z" fill="white"/>
<path d="M11.5126 17.9598L11.5616 18.0089V22.9615L11.5126 23.0122H6.56002L6.50932 22.9615V18.0089L6.56002 17.9598H11.5126Z" fill="white"/>
<path d="M17.4951 23.9424L17.5458 23.9914V28.944L17.4951 28.9947H12.5425L12.4934 28.944V23.9914L12.5425 23.9424H17.4951Z" fill="white"/>
</svg>
