<svg width="42" height="42" viewBox="0 0 42 42" fill="none" xmlns="http://www.w3.org/2000/svg">
<rect width="42" height="42" rx="21" fill="white"/>
<g clip-path="url(#clip0_1399_806)">
<path d="M14.2209 18.0887C13.7662 18.0887 13.3978 18.4572 13.3978 18.9118C13.3978 19.3665 13.7662 19.7366 14.2209 19.7366C14.6755 19.7366 15.044 19.3682 15.044 18.9118C15.044 18.4555 14.6755 18.0887 14.2209 18.0887Z" fill="#00BF36"/>
<path d="M22.3589 18.0026C21.8687 18.0026 21.4715 18.3998 21.4715 18.8899C21.4715 19.3801 21.8687 19.7773 22.3589 19.7773C22.849 19.7773 23.2462 19.3801 23.2462 18.8899C23.2462 18.3998 22.849 18.0026 22.3589 18.0026Z" fill="#00BF36"/>
<path d="M29.7262 9.90002H12.2011C10.4332 9.90002 9 11.3333 9 13.1012V23.5023C9 25.2702 10.4332 26.7034 12.2011 26.7034H18.3904L20.4963 31.664C20.4963 31.664 20.6417 32.0933 20.9915 32.0933C21.3431 32.0933 21.4868 31.664 21.4868 31.664L23.5927 26.7034H29.7262C31.4941 26.7034 32.9273 25.2702 32.9273 23.5023V13.1012C32.9273 11.3333 31.4941 9.90002 29.7262 9.90002ZM16.5161 19.0944C16.5059 20.9958 14.5403 21.0499 14.5403 21.0499C13.7797 21.0499 13.3504 20.5462 13.3504 20.5462V20.8893H11.9189V14.984C11.9189 14.984 11.9121 14.9823 11.9189 14.9806V14.984C12.0085 14.9975 13.3504 14.9806 13.3504 14.9806V17.2386C13.6868 16.664 14.6603 16.6741 14.6603 16.6741C16.7797 16.8719 16.5144 19.0944 16.5144 19.0944H16.5161ZM19.0361 16.8566V20.8995H17.6349V16.8972C17.6349 16.353 16.9589 16.2009 16.9589 16.2009V14.7896C19.1966 14.8809 19.0361 16.8566 19.0361 16.8566ZM22.3572 21.0533C21.0592 21.0533 20.0079 20.0848 20.0079 18.8916C20.0079 17.6983 21.0592 16.7299 22.3572 16.7299C23.6552 16.7299 24.7065 17.6983 24.7065 18.8916C24.7065 20.0848 23.6552 21.0533 22.3572 21.0533ZM30.0338 21.0533C30.0338 21.0533 30.0541 23.1068 27.9668 23.1068H27.3313V21.7766H27.7149C27.7149 21.7766 28.5921 21.8578 28.582 20.5057C28.582 20.5057 28.4113 21.0533 27.1808 21.0533C27.1808 21.0533 25.4366 20.9282 25.4366 19.2262V18.5806C25.4366 18.5806 25.4772 16.8161 27.3921 16.6758C27.3921 16.6758 28.1476 16.5947 28.6124 17.22V16.7873H30.0338V21.055V21.0533Z" fill="#00BF36"/>
<path d="M27.8079 18.0228C27.3296 18.0228 26.9408 18.4116 26.9408 18.8899C26.9408 19.3682 27.3296 19.7569 27.8079 19.7569C28.2862 19.7569 28.6749 19.3682 28.6749 18.8899C28.6749 18.4116 28.2862 18.0228 27.8079 18.0228Z" fill="#00BF36"/>
</g>
<defs>
<clipPath id="clip0_1399_806">
<rect width="24" height="24" fill="white" transform="translate(9 9)"/>
</clipPath>
</defs>
</svg>
