<svg width="42" height="42" viewBox="0 0 42 42" fill="none" xmlns="http://www.w3.org/2000/svg">
<rect width="42" height="42" rx="21" fill="white"/>
<path d="M27.6 9.67433C27.6 9.49758 27.5325 9.32806 27.4123 9.20308C27.2921 9.0781 27.1291 9.00788 26.9591 9.00788H23.7545C22.1409 8.9243 20.561 9.50824 19.3601 10.6321C18.1592 11.756 17.4349 13.3285 17.3455 15.0059V18.6047H14.1409C13.9709 18.6047 13.8079 18.6749 13.6877 18.7999C13.5675 18.9249 13.5 19.0944 13.5 19.2712V22.7367C13.5 22.9135 13.5675 23.083 13.6877 23.208C13.8079 23.3329 13.9709 23.4032 14.1409 23.4032H17.3455V32.3336C17.3455 32.5103 17.413 32.6798 17.5332 32.8048C17.6534 32.9298 17.8164 33 17.9864 33H21.8318C22.0018 33 22.1648 32.9298 22.285 32.8048C22.4052 32.6798 22.4727 32.5103 22.4727 32.3336V23.4032H25.8311C25.9736 23.4053 26.1128 23.3579 26.2265 23.2686C26.3403 23.1793 26.4221 23.0531 26.4592 22.91L27.3821 19.4445C27.4076 19.346 27.411 19.2427 27.3921 19.1427C27.3732 19.0426 27.3325 18.9484 27.273 18.8673C27.2136 18.7862 27.137 18.7203 27.0493 18.6748C26.9615 18.6293 26.8649 18.6053 26.7668 18.6047H22.4727V15.0059C22.5046 14.676 22.6536 14.3703 22.8906 14.1485C23.1277 13.9266 23.4357 13.8046 23.7545 13.8063H26.9591C27.1291 13.8063 27.2921 13.7361 27.4123 13.6111C27.5325 13.4861 27.6 13.3166 27.6 13.1399V9.67433Z" fill="#1F50FF"/>
</svg>
