<svg width="42" height="42" viewBox="0 0 42 42" fill="none" xmlns="http://www.w3.org/2000/svg">
<rect width="42" height="42" rx="21" fill="white"/>
<g clip-path="url(#clip0_1399_795)">
<path fill-rule="evenodd" clip-rule="evenodd" d="M21.001 9C17.742 9 17.333 9.01425 16.053 9.0725C14.7755 9.131 13.9035 9.33325 13.1405 9.63C12.3513 9.9365 11.6818 10.3465 11.0148 11.0138C10.3473 11.6808 9.93725 12.3502 9.62975 13.1392C9.33225 13.9025 9.12975 14.7748 9.07225 16.0518C9.015 17.3317 9 17.741 9 21C9 24.259 9.0145 24.6667 9.0725 25.9467C9.13125 27.2242 9.3335 28.0963 9.63 28.8593C9.93675 29.6485 10.3468 30.318 11.014 30.985C11.6808 31.6525 12.3503 32.0635 13.139 32.37C13.9025 32.6668 14.7748 32.869 16.052 32.9275C17.332 32.9858 17.7408 33 20.9995 33C24.2588 33 24.6665 32.9858 25.9465 32.9275C27.224 32.869 28.097 32.6668 28.8605 32.37C29.6495 32.0635 30.318 31.6525 30.9848 30.985C31.6523 30.318 32.0623 29.6485 32.3698 28.8595C32.6648 28.0963 32.8673 27.224 32.9273 25.947C32.9848 24.667 32.9998 24.259 32.9998 21C32.9998 17.741 32.9848 17.332 32.9273 16.052C32.8673 14.7745 32.6648 13.9025 32.3698 13.1395C32.0623 12.3503 31.6523 11.6808 30.9848 11.0138C30.3173 10.3463 29.6498 9.93625 28.8598 9.63C28.0948 9.33325 27.2223 9.131 25.9448 9.0725C24.6648 9.01425 24.2573 9 20.9973 9H21.001ZM19.9244 11.1625C20.2439 11.162 20.6004 11.1625 21.0009 11.1625C24.2049 11.1625 24.5847 11.174 25.8499 11.2315C27.0199 11.285 27.6549 11.4805 28.0779 11.6447C28.6379 11.8622 29.0372 12.1222 29.4569 12.5422C29.8769 12.9622 30.1369 13.3622 30.3549 13.9222C30.5192 14.3447 30.7149 14.9797 30.7682 16.1497C30.8257 17.4147 30.8382 17.7947 30.8382 20.9972C30.8382 24.1997 30.8257 24.5797 30.7682 25.8447C30.7147 27.0147 30.5192 27.6497 30.3549 28.0722C30.1374 28.6322 29.8769 29.031 29.4569 29.4507C29.0369 29.8707 28.6382 30.1307 28.0779 30.3482C27.6554 30.5132 27.0199 30.7082 25.8499 30.7617C24.5849 30.8192 24.2049 30.8317 21.0009 30.8317C17.7967 30.8317 17.4169 30.8192 16.1519 30.7617C14.9819 30.7077 14.3469 30.5122 13.9237 30.348C13.3637 30.1305 12.9637 29.8705 12.5437 29.4505C12.1237 29.0305 11.8637 28.6315 11.6457 28.0712C11.4814 27.6487 11.2857 27.0137 11.2324 25.8437C11.1749 24.5787 11.1634 24.1987 11.1634 20.9942C11.1634 17.7897 11.1749 17.4117 11.2324 16.1467C11.2859 14.9767 11.4814 14.3417 11.6457 13.9187C11.8632 13.3587 12.1237 12.9587 12.5437 12.5387C12.9637 12.1187 13.3637 11.8587 13.9237 11.6407C14.3467 11.4757 14.9819 11.2807 16.1519 11.227C17.2589 11.177 17.6879 11.162 19.9244 11.1595V11.1625ZM27.4065 13.155C26.6115 13.155 25.9665 13.7992 25.9665 14.5945C25.9665 15.3895 26.6115 16.0345 27.4065 16.0345C28.2015 16.0345 28.8465 15.3895 28.8465 14.5945C28.8465 13.7995 28.2015 13.155 27.4065 13.155ZM21.001 14.8375C17.5978 14.8375 14.8385 17.5967 14.8385 21C14.8385 24.4032 17.5978 27.1612 21.001 27.1612C24.4043 27.1612 27.1625 24.4032 27.1625 21C27.1625 17.5967 24.4043 14.8375 21.001 14.8375ZM21.001 17C23.21 17 25.001 18.7907 25.001 21C25.001 23.209 23.21 25 21.001 25C18.7917 25 17.001 23.209 17.001 21C17.001 18.7907 18.7917 17 21.001 17Z" fill="url(#paint0_linear_1399_795)"/>
</g>
<defs>
<linearGradient id="paint0_linear_1399_795" x1="20.9999" y1="9" x2="20.9999" y2="33" gradientUnits="userSpaceOnUse">
<stop stop-color="#4342DC"/>
<stop offset="0.473958" stop-color="#E52B7F"/>
<stop offset="1" stop-color="#F9A050"/>
</linearGradient>
<clipPath id="clip0_1399_795">
<rect width="24" height="24" fill="white" transform="translate(9 9)"/>
</clipPath>
</defs>
</svg>
