<svg width="42" height="42" viewBox="0 0 42 42" fill="none" xmlns="http://www.w3.org/2000/svg">
<rect width="42" height="42" rx="21" fill="white"/>
<path d="M31.0617 15.9398C30.9422 15.4946 30.7078 15.0886 30.382 14.7624C30.0563 14.4363 29.6505 14.2014 29.2055 14.0813C27.5672 13.6406 21 13.6406 21 13.6406C21 13.6406 14.4328 13.6406 12.7945 14.0789C12.3493 14.1986 11.9433 14.4334 11.6175 14.7596C11.2917 15.0859 11.0574 15.4921 10.9383 15.9375C10.5 17.5781 10.5 21 10.5 21C10.5 21 10.5 24.4219 10.9383 26.0602C11.1797 26.9648 11.8922 27.6773 12.7945 27.9188C14.4328 28.3594 21 28.3594 21 28.3594C21 28.3594 27.5672 28.3594 29.2055 27.9188C30.1102 27.6773 30.8203 26.9648 31.0617 26.0602C31.5 24.4219 31.5 21 31.5 21C31.5 21 31.5 17.5781 31.0617 15.9398ZM18.9141 24.1406V17.8594L24.3516 20.9766L18.9141 24.1406Z" fill="#FF3E3E"/>
</svg>
