<svg width="15" height="24" viewBox="0 0 15 24" fill="none" xmlns="http://www.w3.org/2000/svg">
<path d="M14.6 0.674329C14.6 0.497576 14.5325 0.328063 14.4123 0.203079C14.2921 0.0780961 14.1291 0.00788117 13.9591 0.00788117H10.7545C9.1409 -0.0757035 7.56102 0.508239 6.36012 1.63212C5.15921 2.756 4.43491 4.32846 4.34545 6.00591V9.60473H1.14091C0.970929 9.60473 0.807912 9.67494 0.687718 9.79993C0.567524 9.92491 0.5 10.0944 0.5 10.2712V13.7367C0.5 13.9135 0.567524 14.083 0.687718 14.208C0.807912 14.3329 0.970929 14.4032 1.14091 14.4032H4.34545V23.3336C4.34545 23.5103 4.41298 23.6798 4.53317 23.8048C4.65337 23.9298 4.81638 24 4.98636 24H8.83182C9.0018 24 9.16482 23.9298 9.28501 23.8048C9.4052 23.6798 9.47273 23.5103 9.47273 23.3336V14.4032H12.8311C12.9736 14.4053 13.1128 14.3579 13.2265 14.2686C13.3403 14.1793 13.4221 14.0531 13.4592 13.91L14.3821 10.4445C14.4076 10.346 14.411 10.2427 14.3921 10.1427C14.3732 10.0426 14.3325 9.94839 14.273 9.86727C14.2136 9.78615 14.137 9.7203 14.0493 9.67478C13.9615 9.62927 13.8649 9.6053 13.7668 9.60473H9.47273V6.00591C9.50461 5.67599 9.65361 5.37027 9.89063 5.14845C10.1277 4.92663 10.4357 4.80464 10.7545 4.8063H13.9591C14.1291 4.8063 14.2921 4.73609 14.4123 4.61111C14.5325 4.48612 14.6 4.31661 14.6 4.13986V0.674329Z" fill="white"/>
</svg>
