<svg width="22" height="22" viewBox="0 0 22 22" fill="none" xmlns="http://www.w3.org/2000/svg">
<path fill-rule="evenodd" clip-rule="evenodd" d="M11.001 0.333374C8.10412 0.333374 7.74056 0.346041 6.60277 0.397819C5.46721 0.44982 4.69209 0.629599 4.01386 0.89338C3.31229 1.16583 2.71718 1.53028 2.12428 2.12339C1.53094 2.71629 1.16649 3.3114 0.893158 4.01275C0.628711 4.6912 0.448709 5.46654 0.397597 6.60166C0.346707 7.73945 0.333374 8.10323 0.333374 11.0002C0.333374 13.8971 0.346263 14.2595 0.397819 15.3973C0.450042 16.5329 0.629822 17.308 0.89338 17.9862C1.16605 18.6878 1.5305 19.2829 2.12362 19.8758C2.71629 20.4691 3.31141 20.8345 4.01252 21.1069C4.6912 21.3707 5.46654 21.5505 6.60188 21.6025C7.73967 21.6543 8.10301 21.6669 10.9997 21.6669C13.8969 21.6669 14.2593 21.6543 15.3971 21.6025C16.5327 21.5505 17.3087 21.3707 17.9873 21.1069C18.6887 20.8345 19.2829 20.4691 19.8756 19.8758C20.4689 19.2829 20.8334 18.6878 21.1067 17.9864C21.3689 17.308 21.5489 16.5327 21.6023 15.3975C21.6534 14.2597 21.6667 13.8971 21.6667 11.0002C21.6667 8.10323 21.6534 7.73967 21.6023 6.60188C21.5489 5.46632 21.3689 4.6912 21.1067 4.01297C20.8334 3.31141 20.4689 2.71629 19.8756 2.12339C19.2822 1.53005 18.6889 1.1656 17.9867 0.89338C17.3067 0.629599 16.5311 0.44982 15.3955 0.397819C14.2577 0.346041 13.8955 0.333374 10.9977 0.333374H11.001ZM10.0441 2.25559C10.3281 2.25514 10.645 2.25559 11.001 2.25559C13.849 2.25559 14.1866 2.26581 15.3113 2.31692C16.3513 2.36448 16.9157 2.53826 17.2917 2.68426C17.7895 2.87759 18.1444 3.10871 18.5175 3.48204C18.8909 3.85538 19.122 4.21094 19.3158 4.70872C19.4618 5.08428 19.6358 5.64873 19.6831 6.68874C19.7342 7.8132 19.7453 8.15098 19.7453 10.9977C19.7453 13.8444 19.7342 14.1822 19.6831 15.3066C19.6355 16.3466 19.4618 16.9111 19.3158 17.2866C19.1224 17.7844 18.8909 18.1389 18.5175 18.512C18.1442 18.8853 17.7897 19.1164 17.2917 19.3098C16.9162 19.4564 16.3513 19.6298 15.3113 19.6773C14.1868 19.7284 13.849 19.7395 11.001 19.7395C8.15274 19.7395 7.81518 19.7284 6.69073 19.6773C5.65072 19.6293 5.08627 19.4555 4.71004 19.3095C4.21226 19.1162 3.8567 18.8851 3.48336 18.5118C3.11002 18.1384 2.87891 17.7838 2.68513 17.2857C2.53913 16.9102 2.36513 16.3457 2.31779 15.3057C2.26668 14.1813 2.25646 13.8435 2.25646 10.995C2.25646 8.14654 2.26668 7.81053 2.31779 6.68608C2.36535 5.64607 2.53913 5.08162 2.68513 4.70561C2.87847 4.20783 3.11002 3.85227 3.48336 3.47893C3.8567 3.1056 4.21226 2.87448 4.71004 2.6807C5.08604 2.53403 5.65072 2.3607 6.69073 2.31292C7.67474 2.26848 8.05608 2.25514 10.0441 2.25292V2.25559ZM16.6948 4.02672C15.9882 4.02672 15.4148 4.59939 15.4148 5.30629C15.4148 6.01296 15.9882 6.5863 16.6948 6.5863C17.4015 6.5863 17.9749 6.01296 17.9749 5.30629C17.9749 4.59962 17.4015 4.02672 16.6948 4.02672ZM11.0011 5.52229C7.97592 5.52229 5.52322 7.97498 5.52322 11.0001C5.52322 14.0253 7.97592 16.4768 11.0011 16.4768C14.0262 16.4768 16.478 14.0253 16.478 11.0001C16.478 7.97498 14.0262 5.52229 11.0011 5.52229ZM11.001 7.44453C12.9646 7.44453 14.5566 9.03632 14.5566 11.0001C14.5566 12.9637 12.9646 14.5557 11.001 14.5557C9.03722 14.5557 7.44543 12.9637 7.44543 11.0001C7.44543 9.03632 9.03722 7.44453 11.001 7.44453Z" fill="white"/>
</svg>
