<svg width="22" height="16" viewBox="0 0 22 16" fill="none" xmlns="http://www.w3.org/2000/svg">
<path fill-rule="evenodd" clip-rule="evenodd" d="M19.3347 1.12452C20.2526 1.37641 20.9756 2.11859 21.2209 3.0611C21.6667 4.76928 21.6667 8.33342 21.6667 8.33342C21.6667 8.33342 21.6667 11.8974 21.2209 13.6057C20.9756 14.5482 20.2526 15.2904 19.3347 15.5424C17.6712 16.0001 11 16.0001 11 16.0001C11 16.0001 4.32889 16.0001 2.66525 15.5424C1.74731 15.2904 1.0244 14.5482 0.779071 13.6057C0.333374 11.8974 0.333374 8.33342 0.333374 8.33342C0.333374 8.33342 0.333374 4.76928 0.779071 3.0611C1.0244 2.11859 1.74731 1.37641 2.66525 1.12452C4.32889 0.666748 11 0.666748 11 0.666748C11 0.666748 17.6712 0.666748 19.3347 1.12452ZM9.00006 5.33334V12L14.3334 8.66681L9.00006 5.33334Z" fill="white"/>
</svg>
