<svg width="18" height="30" viewBox="0 0 18 30" fill="none" xmlns="http://www.w3.org/2000/svg">
<path d="M0.5049 0.509979L0.454224 0.55903V5.51161L0.5049 5.5623H5.45749L5.50655 5.51161V0.55903L5.45749 0.509979H0.5049Z" fill="#4D2FF6" fill-opacity="0.8"/>
<path d="M6.48744 6.49255L6.43839 6.54324V11.4942L6.48744 11.5449H11.44L11.4907 11.4942V6.54324L11.44 6.49255H6.48744Z" fill="#4D2FF6" fill-opacity="0.8"/>
<path d="M17.4225 12.4752H12.47L12.4209 12.5258V17.4784L12.47 17.5275H17.4225L17.4732 17.4784V12.5258L17.4225 12.4752Z" fill="#4D2FF6" fill-opacity="0.8"/>
<path d="M6.48744 18.4598L6.43839 18.5089V23.4614L6.48744 23.5121H11.44L11.4907 23.4614V18.5089L11.44 18.4598H6.48744Z" fill="#4D2FF6" fill-opacity="0.8"/>
<path d="M0.5049 24.4424L0.454224 24.4914V29.444L0.5049 29.4947H5.45749L5.50655 29.444V24.4914L5.45749 24.4424H0.5049Z" fill="#4D2FF6" fill-opacity="0.8"/>
</svg>
