<svg width="18" height="30" viewBox="0 0 18 30" fill="none" xmlns="http://www.w3.org/2000/svg">
<path d="M17.4951 0.509979L17.5458 0.55903V5.51161L17.4951 5.5623H12.5425L12.4934 5.51161V0.55903L12.5425 0.509979H17.4951Z" fill="#4D2FF6" fill-opacity="0.8"/>
<path d="M11.5126 6.49255L11.5616 6.54324V11.4942L11.5126 11.5449H6.56002L6.50932 11.4942V6.54324L6.56002 6.49255H11.5126Z" fill="#4D2FF6" fill-opacity="0.8"/>
<path d="M0.577451 12.4752H5.53004L5.5791 12.5258V17.4784L5.53004 17.5275H0.577451L0.526775 17.4784V12.5258L0.577451 12.4752Z" fill="#4D2FF6" fill-opacity="0.8"/>
<path d="M11.5126 18.4598L11.5616 18.5089V23.4614L11.5126 23.5121H6.56002L6.50932 23.4614V18.5089L6.56002 18.4598H11.5126Z" fill="#4D2FF6" fill-opacity="0.8"/>
<path d="M17.4951 24.4424L17.5458 24.4914V29.444L17.4951 29.4947H12.5425L12.4934 29.444V24.4914L12.5425 24.4424H17.4951Z" fill="#4D2FF6" fill-opacity="0.8"/>
</svg>
