<svg width="93" height="30" viewBox="0 0 93 30" fill="none" xmlns="http://www.w3.org/2000/svg">
<path d="M0 30V3.47778H10.4006C12.3013 3.47778 13.9474 3.70555 15.3402 4.15983C16.7317 4.61411 17.8699 5.40003 18.7535 6.51508C19.6099 7.58007 20.0387 8.94291 20.0387 10.6048C20.0387 12.034 19.5704 13.2917 18.6336 14.383C17.9638 15.1614 17.2149 15.7071 16.3844 16.0187C17.6153 16.4079 18.7139 17.1675 19.6779 18.2963C20.6418 19.4264 21.1238 20.7692 21.1238 22.3273C21.1238 23.6776 20.8222 24.8715 20.2204 25.9102C19.6186 26.9489 18.861 27.7674 17.9514 28.3631C16.3177 29.4543 13.9091 29.9987 10.7232 29.9987H0V30ZM15.4193 10.8389C15.4193 9.59242 14.9978 8.67134 14.155 8.07314C13.3122 7.47619 11.8861 7.1771 9.87787 7.1771H4.57746V14.4606H9.87787C11.8861 14.4606 13.311 14.169 14.155 13.5846C14.9978 13.0001 15.4193 12.0853 15.4193 10.8389V10.8389ZM16.5439 22.1721C16.5439 20.5364 15.7814 19.3425 14.2551 18.5892C13.4778 18.2 12.0195 18.0047 9.87787 18.0047H4.57746V26.3007H9.87787C12.0195 26.3007 13.4778 26.1192 14.2551 25.755C15.7814 24.9766 16.5439 23.7827 16.5439 22.1721Z" fill="#4D2FF6"/>
<path d="M61.9909 3.86938L71.5487 29.9999H66.8909L64.3798 23.3809H53.292L50.8686 29.9999H46.1713L55.7291 3.86938H61.9934H61.9909ZM54.5773 19.7354H63.0945L58.8989 7.70636L54.5773 19.7354V19.7354Z" fill="#4D2FF6"/>
<path d="M34.9018 3.47778C27.6698 3.47778 21.8071 9.41471 21.8071 16.7383C21.8071 24.0618 27.6698 29.9987 34.9018 29.9987C42.1338 29.9987 47.9965 24.0618 47.9965 16.7383C47.9965 9.41471 42.1338 3.47778 34.9018 3.47778ZM34.9018 25.9315C29.8399 25.9315 25.7358 21.7754 25.7358 16.6494C25.7358 11.5234 29.8399 7.36732 34.9018 7.36732C39.9637 7.36732 44.0679 11.5234 44.0679 16.6494C44.0679 21.7754 39.9637 25.9315 34.9018 25.9315Z" fill="#4D2FF6"/>
<path d="M93 29.9999H72.5732V25.9088L86.8642 7.77769H73.3456V3.86938H92.6565V7.43229L78.3667 25.5634H93V29.9999V29.9999Z" fill="#4D2FF6"/>
<path d="M34.9019 0C31.7542 0 28.8118 0.891041 26.3068 2.43785L34.9019 16.7383V0Z" fill="#80C7E8"/>
<path d="M25.1958 16.7393H34.9019L29.8548 8.34204C27.0606 10.0678 25.1958 13.1827 25.1958 16.7393Z" fill="#29AAE1"/>
<path d="M27.9257 16.7394H34.9018L31.2747 10.7036C29.2665 11.9438 27.9257 14.1827 27.9257 16.7394Z" fill="#E89E94"/>
<path d="M34.9019 7.03198C33.0766 7.03198 31.3699 7.54883 29.9178 8.44613L34.9019 16.7395V7.03198Z" fill="#DC8582"/>
<path d="M34.9019 8.26077V16.7382L39.9131 9.94523C38.5154 8.8865 36.7815 8.25952 34.9019 8.25952V8.26077Z" fill="#78C2D5"/>
<path d="M34.9019 10.865V16.7393L38.3733 12.0339C37.4056 11.3005 36.2032 10.8662 34.9019 10.8662V10.865Z" fill="#DCA0A4"/>
<path d="M43.4179 5.19485L34.9019 16.7383L47.2279 9.53616C46.259 7.84044 44.9601 6.36247 43.4191 5.1936L43.4179 5.19485Z" fill="#80C7E8"/>
<path d="M42.0968 12.5359L34.9019 16.7395H43.2078C43.2078 15.2078 42.8037 13.7723 42.0968 12.5359Z" fill="#DB8081"/>
<path d="M39.4904 10.5198L34.9019 16.7395L41.5419 12.86C41.0204 11.9464 40.3197 11.1505 39.4892 10.521L39.4904 10.5198Z" fill="#D38D8F"/>
<path d="M39.1679 14.2466L34.9031 16.7382H39.8266C39.8266 15.8309 39.5868 14.9787 39.1679 14.2466Z" fill="#78C2D5"/>
<path d="M40.7658 16.7395H34.9019L39.3533 20.604C40.2332 19.5653 40.7658 18.215 40.7658 16.7395Z" fill="#E89E94"/>
<path d="M36.8841 21.9193C36.8965 21.9143 36.9076 21.9093 36.9199 21.9043C36.9521 21.8918 36.983 21.8793 37.0151 21.8655C37.0176 21.8655 37.0188 21.8642 37.0213 21.863L34.9019 16.7395V22.2947C34.9019 22.2947 34.908 22.2947 34.9105 22.2947C34.9414 22.2947 34.9711 22.2947 35.002 22.2947C35.0193 22.2947 35.0353 22.2947 35.0526 22.2947C35.0712 22.2947 35.0909 22.2935 35.1095 22.2922C35.348 22.2835 35.5865 22.2584 35.8225 22.2171C35.8238 22.2171 35.825 22.2171 35.8275 22.2171C35.8608 22.2109 35.8942 22.2046 35.9276 22.1984C35.9461 22.1946 35.9634 22.1909 35.982 22.1871C35.998 22.1834 36.0153 22.1809 36.0314 22.1771C36.0648 22.1696 36.0994 22.1621 36.1327 22.1546C36.1327 22.1546 36.1327 22.1546 36.134 22.1546C36.3651 22.1008 36.5924 22.0307 36.8149 21.9481C36.8384 21.9393 36.8606 21.9306 36.8841 21.9218V21.9193Z" fill="#D38D8F"/>
<path d="M34.9019 16.7395L37.4983 23.0168C37.5255 23.0068 37.5515 22.9956 37.5787 22.983C37.5947 22.9755 37.6108 22.9693 37.6256 22.9618C37.6541 22.9492 37.6825 22.9355 37.7109 22.923C37.7369 22.9105 37.7628 22.8992 37.7875 22.8867C37.8061 22.8779 37.8246 22.8692 37.8419 22.8604C37.8765 22.8429 37.9123 22.8254 37.9469 22.8078C37.9556 22.8041 37.9643 22.7991 37.9729 22.7941C38.6687 22.4311 39.2927 21.9493 39.8204 21.3749C39.8415 21.3524 39.8612 21.3311 39.8822 21.3073C39.8934 21.2961 39.9032 21.2836 39.9131 21.271C39.9416 21.2398 39.9687 21.2072 39.9959 21.1759C39.9972 21.1734 39.9996 21.1722 40.0009 21.1697L34.8982 16.7395H34.9019Z" fill="#DCA0A4"/>
<path d="M34.9019 19.8294V16.7395L33.4535 19.6604C33.4535 19.6604 33.456 19.6617 33.4584 19.6629C33.4745 19.6704 33.4906 19.6792 33.5066 19.6867C33.5153 19.6905 33.5239 19.6955 33.5326 19.6992C33.5425 19.7042 33.5524 19.7092 33.5635 19.713C33.9058 19.8707 34.2741 19.9683 34.6522 19.9983C34.6547 19.9983 34.6584 19.9983 34.6609 19.9983C34.6807 19.9996 34.7017 20.0008 34.7214 20.0021C34.7301 20.0021 34.7375 20.0021 34.7462 20.0033C34.761 20.0033 34.7758 20.0046 34.7919 20.0046C34.8055 20.0046 34.8191 20.0046 34.8327 20.0046C34.8425 20.0046 34.8524 20.0046 34.8623 20.0046C34.8759 20.0046 34.8883 20.0046 34.9019 20.0046V19.8269V19.8294Z" fill="#78C2D5"/>
<path d="M31.9965 16.7395C31.9965 17.1675 32.0867 17.573 32.2486 17.9397L34.9019 16.7395H31.9965Z" fill="#55A4DA"/>
<path d="M31.9965 16.7395C31.9965 17.1675 32.0867 17.573 32.2486 17.9397L34.9019 16.7395H31.9965Z" fill="#DC8582"/>
<path d="M34.9019 0C31.7542 0 28.8118 0.891041 26.3068 2.43785L34.9019 16.7383V0Z" fill="#664AFF"/>
<path d="M25.1958 16.7393H34.9019L29.8548 8.34204C27.0606 10.0678 25.1958 13.1827 25.1958 16.7393Z" fill="#4D2FF6"/>
<path d="M27.9257 16.7394H34.9018L31.2747 10.7036C29.2665 11.9438 27.9257 14.1827 27.9257 16.7394Z" fill="#AFFFF0"/>
<path d="M34.9019 7.03198C33.0766 7.03198 31.3699 7.54883 29.9178 8.44613L34.9019 16.7395V7.03198Z" fill="#1EFAD2"/>
<path d="M34.9019 8.26077V16.7382L39.9131 9.94523C38.5154 8.8865 36.7815 8.25952 34.9019 8.25952V8.26077Z" fill="#664AFF"/>
<path d="M34.9019 10.865V16.7393L38.3733 12.0339C37.4056 11.3005 36.2032 10.8662 34.9019 10.8662V10.865Z" fill="#7CFFE7"/>
<path d="M43.4179 5.19485L34.9019 16.7383L47.2279 9.53616C46.259 7.84044 44.9601 6.36247 43.4191 5.1936L43.4179 5.19485Z" fill="#664AFF"/>
<path d="M42.0968 12.5359L34.9019 16.7395H43.2078C43.2078 15.2078 42.8037 13.7723 42.0968 12.5359Z" fill="#1EFAD2"/>
<path d="M39.4904 10.5198L34.9019 16.7395L41.5419 12.86C41.0204 11.9464 40.3197 11.1505 39.4892 10.521L39.4904 10.5198Z" fill="#3FFFDC"/>
<path d="M39.1618 14.2791L34.897 16.7707H39.8205C39.8205 15.8634 39.5807 15.0112 39.1618 14.2791Z" fill="#664AFF"/>
<path d="M40.7658 16.7395H34.9019L39.3533 20.604C40.2332 19.5653 40.7658 18.215 40.7658 16.7395Z" fill="#AFFFF0"/>
<path d="M36.8841 21.9193C36.8965 21.9143 36.9076 21.9093 36.9199 21.9043C36.9521 21.8918 36.983 21.8793 37.0151 21.8655C37.0176 21.8655 37.0188 21.8642 37.0213 21.863L34.9019 16.7395V22.2947C34.9019 22.2947 34.908 22.2947 34.9105 22.2947C34.9414 22.2947 34.9711 22.2947 35.002 22.2947C35.0193 22.2947 35.0353 22.2947 35.0526 22.2947C35.0712 22.2947 35.0909 22.2935 35.1095 22.2922C35.348 22.2835 35.5865 22.2584 35.8225 22.2171C35.8238 22.2171 35.825 22.2171 35.8275 22.2171C35.8608 22.2109 35.8942 22.2046 35.9276 22.1984C35.9461 22.1946 35.9634 22.1909 35.982 22.1871C35.998 22.1834 36.0153 22.1809 36.0314 22.1771C36.0648 22.1696 36.0994 22.1621 36.1327 22.1546C36.1327 22.1546 36.1327 22.1546 36.134 22.1546C36.3651 22.1008 36.5924 22.0307 36.8149 21.9481C36.8384 21.9393 36.8606 21.9306 36.8841 21.9218V21.9193Z" fill="#1EFAD2"/>
<path d="M34.9019 16.7395L37.4983 23.0168C37.5255 23.0068 37.5515 22.9956 37.5787 22.983C37.5947 22.9755 37.6108 22.9693 37.6256 22.9618C37.6541 22.9492 37.6825 22.9355 37.7109 22.923C37.7369 22.9105 37.7628 22.8992 37.7875 22.8867C37.8061 22.8779 37.8246 22.8692 37.8419 22.8604C37.8765 22.8429 37.9123 22.8254 37.9469 22.8078C37.9556 22.8041 37.9643 22.7991 37.9729 22.7941C38.6687 22.4311 39.2927 21.9493 39.8204 21.3749C39.8415 21.3524 39.8612 21.3311 39.8822 21.3073C39.8934 21.2961 39.9032 21.2836 39.9131 21.271C39.9416 21.2398 39.9687 21.2072 39.9959 21.1759C39.9972 21.1734 39.9996 21.1722 40.0009 21.1697L34.8982 16.7395H34.9019Z" fill="#7CFFE7"/>
<path d="M34.9019 19.8294V16.7395L33.4535 19.6604C33.4535 19.6604 33.456 19.6617 33.4584 19.6629C33.4745 19.6704 33.4906 19.6792 33.5066 19.6867C33.5153 19.6905 33.5239 19.6955 33.5326 19.6992C33.5425 19.7042 33.5524 19.7092 33.5635 19.713C33.9058 19.8707 34.2741 19.9683 34.6522 19.9983C34.6547 19.9983 34.6584 19.9983 34.6609 19.9983C34.6807 19.9996 34.7017 20.0008 34.7214 20.0021C34.7301 20.0021 34.7375 20.0021 34.7462 20.0033C34.761 20.0033 34.7758 20.0046 34.7919 20.0046C34.8055 20.0046 34.8191 20.0046 34.8327 20.0046C34.8425 20.0046 34.8524 20.0046 34.8623 20.0046C34.8759 20.0046 34.8883 20.0046 34.9019 20.0046V19.8269V19.8294Z" fill="#664AFF"/>
<path d="M31.9965 16.7395C31.9965 17.1675 32.0867 17.573 32.2486 17.9397L34.9019 16.7395H31.9965Z" fill="#55A4DA"/>
<path d="M31.9965 16.7395C31.9965 17.1675 32.0867 17.573 32.2486 17.9397L34.9019 16.7395H31.9965Z" fill="#1EFAD2"/>
<path d="M32.5476 17.8045C32.7911 18.3539 33.2149 18.8032 33.7451 19.0722L34.9018 16.7395L32.5476 17.8045Z" fill="#7CFFE7"/>
<path d="M31.2747 26.9489C31.2797 26.9326 31.2858 26.9214 31.292 26.9176C31.2994 26.9126 31.3118 26.9113 31.3278 26.9139C31.3612 26.9176 31.3921 26.9226 31.4193 26.9289C31.4465 26.9351 31.4737 26.9414 31.5009 26.9489C31.5392 26.9614 31.5762 26.9752 31.6133 26.9927C31.6504 27.0102 31.6813 27.0302 31.7072 27.0565C31.7332 27.0815 31.7517 27.1116 31.7629 27.1454C31.774 27.1792 31.774 27.2192 31.7629 27.2643C31.7554 27.293 31.7431 27.3181 31.7258 27.3418C31.7085 27.3656 31.6862 27.3831 31.6615 27.3957C31.6726 27.4082 31.6825 27.4232 31.6912 27.442C31.6998 27.4595 31.7048 27.4795 31.7085 27.4995C31.7122 27.5196 31.7134 27.5408 31.7122 27.5621C31.7122 27.5834 31.7085 27.6059 31.7023 27.6259C31.6912 27.666 31.6739 27.6973 31.6516 27.7198C31.6294 27.7423 31.6022 27.7598 31.5725 27.7698C31.5416 27.7799 31.5083 27.7849 31.4724 27.7849C31.4366 27.7849 31.3983 27.7811 31.3587 27.7736C31.318 27.7661 31.2772 27.7561 31.2364 27.7423C31.1944 27.7298 31.1536 27.716 31.1141 27.7023C31.1066 27.6998 31.0992 27.6973 31.093 27.6935C31.0869 27.691 31.0819 27.6872 31.0782 27.6822C31.0745 27.6772 31.072 27.671 31.0708 27.6622C31.0708 27.6547 31.0708 27.6447 31.0757 27.6309L31.2747 26.9476V26.9489ZM31.3217 27.5646C31.3538 27.5746 31.3798 27.5821 31.402 27.5859C31.423 27.5896 31.4403 27.5896 31.4539 27.5871C31.4675 27.5846 31.4774 27.5809 31.4836 27.5734C31.4897 27.5671 31.4947 27.5583 31.4984 27.5496C31.5058 27.5233 31.4959 27.502 31.4687 27.4845C31.4415 27.467 31.4045 27.4532 31.3563 27.4407L31.3217 27.5646ZM31.4069 27.2605C31.444 27.273 31.4749 27.2768 31.4996 27.273C31.5243 27.2693 31.5404 27.2555 31.5478 27.2305C31.5503 27.2217 31.5515 27.2129 31.5515 27.2042C31.5515 27.1954 31.5478 27.1867 31.5404 27.1779C31.533 27.1704 31.5219 27.1616 31.5058 27.1541C31.4897 27.1466 31.4687 27.1391 31.4428 27.1329L31.4069 27.2605Z" fill="white" stroke="white" stroke-width="0.25" stroke-miterlimit="10"/>
<path d="M32.3609 27.2668C32.3659 27.248 32.3708 27.2355 32.3795 27.2305C32.3881 27.2255 32.3992 27.2243 32.4141 27.228L32.5698 27.2643C32.5859 27.2681 32.5957 27.2743 32.5995 27.2818C32.6032 27.2906 32.6032 27.3044 32.5995 27.3231L32.4487 28.034C32.445 28.0527 32.4388 28.0652 32.4314 28.0715C32.424 28.0778 32.4116 28.0778 32.3955 28.074L32.2398 28.0377C32.225 28.034 32.2151 28.0277 32.2102 28.0202C32.2065 28.0114 32.2052 27.9977 32.2102 27.9789L32.3609 27.2681V27.2668Z" fill="white" stroke="white" stroke-width="0.25" stroke-miterlimit="10"/>
<path d="M33.5005 27.9826L33.409 27.97C33.3954 27.9688 33.3868 27.965 33.3818 27.96C33.3769 27.955 33.3756 27.9463 33.3769 27.9338L33.3966 27.7911C33.3979 27.7786 33.4028 27.7698 33.409 27.7661C33.4152 27.7623 33.4251 27.7611 33.4374 27.7636L33.6969 27.7998C33.7143 27.8023 33.7241 27.8074 33.7291 27.8149C33.734 27.8224 33.7353 27.8361 33.7316 27.8562L33.671 28.2329C33.6685 28.2479 33.6636 28.2579 33.6574 28.2629C33.6512 28.2679 33.6426 28.2704 33.6302 28.2704C33.6141 28.2704 33.5968 28.2704 33.5783 28.2704C33.5598 28.2704 33.54 28.2704 33.5202 28.2679C33.5005 28.2654 33.4807 28.2641 33.4609 28.2616C33.4411 28.2591 33.4226 28.2566 33.4041 28.2541C33.3522 28.2466 33.3015 28.2303 33.2533 28.2078C33.2051 28.1853 33.1631 28.154 33.1272 28.1152C33.0914 28.0764 33.0642 28.0289 33.0469 27.9725C33.0296 27.9162 33.0259 27.8499 33.0358 27.7748C33.0432 27.721 33.0568 27.6747 33.0766 27.6347C33.0963 27.5946 33.1211 27.5608 33.152 27.5333C33.1816 27.5058 33.2137 27.4845 33.2508 27.4695C33.2879 27.4532 33.3274 27.4432 33.3682 27.4357C33.409 27.4307 33.4523 27.4294 33.4955 27.4319C33.5388 27.4344 33.582 27.4419 33.6253 27.4507C33.6352 27.4532 33.6426 27.457 33.6463 27.462C33.65 27.467 33.6525 27.4732 33.65 27.4845L33.6253 27.6547C33.624 27.6647 33.6203 27.671 33.6154 27.6735C33.6104 27.676 33.603 27.676 33.5931 27.6735C33.5487 27.6647 33.5091 27.6609 33.4745 27.6622C33.4399 27.6634 33.4102 27.6697 33.3855 27.681C33.3596 27.6922 33.3398 27.711 33.3237 27.7348C33.3089 27.7598 33.2978 27.7898 33.2928 27.8286C33.2891 27.8587 33.2891 27.8862 33.2928 27.9112C33.2965 27.9363 33.3064 27.9575 33.3225 27.9763C33.3373 27.9951 33.3583 28.0101 33.3855 28.0226C33.4127 28.0351 33.4473 28.0439 33.4893 28.0489L33.5005 27.9851V27.9826Z" fill="white" stroke="white" stroke-width="0.25" stroke-miterlimit="10"/>
<path d="M34.3036 27.5722C34.3036 27.5509 34.3073 27.5359 34.3148 27.5284C34.3222 27.5209 34.3382 27.5159 34.363 27.5159C34.4074 27.5146 34.4519 27.5159 34.4977 27.5184C34.5434 27.5221 34.5866 27.5296 34.6287 27.5397C34.6707 27.5497 34.7102 27.5659 34.7461 27.586C34.7831 27.606 34.814 27.631 34.8412 27.6623C34.8684 27.6936 34.8882 27.7299 34.903 27.7737C34.9178 27.8162 34.924 27.8675 34.9228 27.9251C34.9215 27.9952 34.9067 28.0578 34.8795 28.1103C34.8523 28.1629 34.8153 28.2067 34.7658 28.2417C34.7164 28.2768 34.6546 28.3018 34.5829 28.3181C34.5112 28.3343 34.4297 28.3418 34.337 28.3393C34.3049 28.3393 34.29 28.3206 34.29 28.2843L34.2999 27.5734L34.3036 27.5722ZM34.5372 28.1016C34.5582 28.0965 34.5767 28.0903 34.594 28.084C34.6113 28.0765 34.6262 28.0665 34.6385 28.0515C34.6509 28.0377 34.6608 28.0202 34.6682 27.9989C34.6756 27.9777 34.6793 27.9501 34.6806 27.9163C34.6806 27.8876 34.6781 27.8625 34.6719 27.8412C34.6645 27.82 34.6546 27.8025 34.6422 27.7887C34.6299 27.7749 34.6138 27.7649 34.5965 27.7574C34.5792 27.7499 34.5594 27.7474 34.5384 27.7486V28.1016H34.5372Z" fill="white" stroke="white" stroke-width="0.25" stroke-miterlimit="10"/>
<path d="M35.4592 28.3117C35.4468 28.3091 35.4369 28.3041 35.432 28.2979C35.427 28.2916 35.427 28.2791 35.4307 28.2641L35.6075 27.552C35.6124 27.5332 35.6174 27.5195 35.626 27.5107C35.6334 27.5032 35.6458 27.4982 35.6643 27.4969L35.825 27.4844C35.8423 27.4832 35.8559 27.4857 35.8645 27.4932C35.8732 27.5007 35.8818 27.5132 35.888 27.5307L36.171 28.2065C36.1772 28.2215 36.1784 28.2328 36.1747 28.2403C36.171 28.2478 36.1623 28.2541 36.15 28.2591L36.0153 28.3104C35.9943 28.3179 35.9794 28.3104 35.9696 28.2879L35.9263 28.1777L35.6643 28.1978L35.6396 28.3129C35.6334 28.3367 35.6198 28.3467 35.5988 28.3417L35.4579 28.3117H35.4592ZM35.7632 27.7472L35.7137 27.9763L35.8472 27.9662L35.7632 27.7485V27.7472Z" fill="white" stroke="white" stroke-width="0.25" stroke-miterlimit="10"/>
<path d="M36.7209 27.597L36.5492 27.6283C36.5343 27.6308 36.522 27.6308 36.5133 27.6258C36.5047 27.6208 36.4997 27.6108 36.496 27.5958L36.4713 27.4544C36.4688 27.4393 36.4713 27.4281 36.4763 27.4206C36.4824 27.4131 36.4936 27.4081 36.5084 27.4056L37.0991 27.2979C37.1139 27.2954 37.1263 27.2967 37.1349 27.3004C37.1436 27.3054 37.1485 27.3154 37.151 27.3305L37.1757 27.4719C37.1782 27.4869 37.1757 27.4982 37.1708 27.5057C37.1646 27.5132 37.1535 27.5182 37.1386 27.5207L36.9607 27.5532L37.0633 28.0926C37.067 28.1114 37.0657 28.1251 37.062 28.1339C37.0571 28.1427 37.0472 28.1477 37.0311 28.1502L36.8729 28.179C36.8581 28.1815 36.8458 28.179 36.8383 28.174C36.8309 28.1677 36.826 28.1552 36.8223 28.1364L36.7197 27.597H36.7209Z" fill="white" stroke="white" stroke-width="0.25" stroke-miterlimit="10"/>
<path d="M37.7467 27.9638C37.7331 27.9638 37.7244 27.9613 37.7182 27.955C37.7121 27.9487 37.7096 27.9387 37.7096 27.9212L37.7405 27.1879C37.7405 27.1678 37.7442 27.1541 37.7504 27.1441C37.7566 27.134 37.7677 27.1278 37.785 27.1228L37.9395 27.0777C37.9568 27.0727 37.9704 27.0727 37.9802 27.0777C37.9901 27.0827 38 27.0927 38.0111 27.109L38.4227 27.7135C38.4325 27.7272 38.435 27.7385 38.4325 27.746C38.4301 27.7548 38.4239 27.7623 38.4128 27.7685L38.2917 27.8461C38.2731 27.8574 38.2558 27.8536 38.2435 27.8336L38.1792 27.7347L37.9271 27.8086V27.9262C37.9246 27.9512 37.9135 27.9625 37.8913 27.9638H37.7479H37.7467ZM37.932 27.3493L37.9296 27.5833L38.0581 27.5458L37.9333 27.3493H37.932Z" fill="white" stroke="white" stroke-width="0.25" stroke-miterlimit="10"/>
<path d="M40.0663 26.2305C40.0564 26.213 40.0527 26.2005 40.0552 26.1905C40.0577 26.1817 40.0651 26.1729 40.0787 26.1642L40.2183 26.0841C40.2319 26.0753 40.2443 26.0741 40.2517 26.0766C40.2603 26.0803 40.269 26.0903 40.2789 26.1066L40.6422 26.7323C40.6521 26.7486 40.6558 26.7624 40.6546 26.7711C40.6521 26.7799 40.6447 26.7887 40.6298 26.7974L40.4902 26.8775C40.4766 26.885 40.4655 26.8875 40.4568 26.8838C40.4482 26.88 40.4383 26.8713 40.4284 26.8537L40.0651 26.228L40.0663 26.2305Z" fill="white" stroke="white" stroke-width="0.25" stroke-miterlimit="10"/>
<path d="M41.0859 26.2242C41.0982 26.2205 41.1131 26.2167 41.1279 26.2117C41.1427 26.2067 41.1588 26.2017 41.1736 26.1954C41.1897 26.1892 41.2045 26.1829 41.2181 26.1754C41.2329 26.1679 41.2453 26.1604 41.2577 26.1529C41.27 26.1441 41.2774 26.1354 41.2811 26.1253C41.2848 26.1153 41.2824 26.1053 41.275 26.0953C41.2675 26.0853 41.2564 26.0791 41.2416 26.0778C41.2268 26.0778 41.2008 26.0803 41.1637 26.0878C41.1328 26.0941 41.1019 26.0991 41.0723 26.1028C41.0426 26.1066 41.013 26.1066 40.9845 26.1028C40.9561 26.0978 40.9277 26.0878 40.9017 26.0715C40.8758 26.0553 40.8511 26.0302 40.8276 25.9965C40.8091 25.9689 40.7967 25.9389 40.7905 25.9076C40.7843 25.8751 40.7843 25.8425 40.7905 25.8075C40.7979 25.7737 40.8128 25.7412 40.8362 25.7086C40.8597 25.6761 40.8919 25.6448 40.9326 25.616C40.9685 25.591 41.0056 25.5697 41.0414 25.5522C41.0772 25.5347 41.118 25.5209 41.1613 25.5109C41.1712 25.5084 41.1786 25.5096 41.1835 25.5121C41.1897 25.5146 41.1946 25.5221 41.2008 25.5334L41.2799 25.6761C41.291 25.6949 41.2848 25.7061 41.2614 25.7099C41.2255 25.7161 41.1897 25.7261 41.1563 25.7412C41.123 25.7562 41.0945 25.7699 41.0735 25.785C41.0562 25.7975 41.0426 25.81 41.0352 25.8225C41.0278 25.835 41.0278 25.8488 41.0377 25.8625C41.0426 25.8701 41.05 25.8751 41.0587 25.8776C41.0673 25.8801 41.0785 25.8801 41.0921 25.8788C41.1057 25.8788 41.1217 25.8751 41.1415 25.8713C41.16 25.8676 41.1835 25.8638 41.2082 25.8613C41.2354 25.8575 41.2614 25.8563 41.2861 25.855C41.3108 25.855 41.3343 25.8563 41.3578 25.8625C41.3812 25.8688 41.4035 25.8801 41.4257 25.8963C41.4467 25.9126 41.4677 25.9351 41.4888 25.9652C41.511 25.9977 41.5258 26.0302 41.532 26.064C41.5382 26.0966 41.537 26.1291 41.5295 26.1591C41.5209 26.1904 41.5061 26.2205 41.4851 26.248C41.464 26.2755 41.4369 26.3018 41.4035 26.3243C41.3615 26.3531 41.3219 26.3769 41.2836 26.3932C41.2453 26.4094 41.2095 26.4232 41.1761 26.4332C41.1637 26.437 41.1539 26.4382 41.1477 26.4357C41.1415 26.4345 41.1366 26.4282 41.1316 26.4182L41.0673 26.268C41.0587 26.248 41.0649 26.2355 41.0884 26.2292L41.0859 26.2242Z" fill="white" stroke="white" stroke-width="0.25" stroke-miterlimit="10"/>
<path d="M43.4611 23.839C43.5143 23.8866 43.5538 23.9354 43.5785 23.9854C43.6045 24.0367 43.6193 24.0856 43.623 24.1356C43.6267 24.1857 43.6193 24.2332 43.602 24.2795C43.5847 24.3258 43.56 24.3684 43.5278 24.4047C43.4957 24.4422 43.4574 24.4723 43.4142 24.4948C43.3709 24.5173 43.3252 24.5311 43.2757 24.5336C43.2263 24.5373 43.1756 24.5286 43.1225 24.5098C43.0694 24.4898 43.0162 24.4572 42.9631 24.4097C42.9099 24.3621 42.8704 24.3133 42.8457 24.2633C42.8197 24.212 42.8061 24.1619 42.8024 24.1118C42.7987 24.063 42.8049 24.0142 42.8222 23.9679C42.8395 23.9216 42.8642 23.8791 42.8963 23.8428C42.9285 23.8052 42.9668 23.7752 43.01 23.7527C43.0533 23.7301 43.099 23.7164 43.1485 23.7126C43.1966 23.7101 43.2486 23.7176 43.3017 23.7377C43.3548 23.7564 43.408 23.7902 43.4611 23.8378V23.839ZM43.2881 24.038C43.2399 23.9954 43.1979 23.9704 43.162 23.9654C43.1262 23.9604 43.0965 23.9717 43.0718 24.0005C43.0471 24.0292 43.0397 24.0605 43.0496 24.0956C43.0595 24.1306 43.0879 24.1694 43.1373 24.2132C43.1855 24.2558 43.2275 24.2808 43.2634 24.2845C43.2992 24.2895 43.3289 24.2783 43.3524 24.2495C43.3771 24.2207 43.3845 24.1894 43.3746 24.1556C43.3647 24.1206 43.3363 24.0818 43.2881 24.0393V24.038Z" fill="white" stroke="white" stroke-width="0.25" stroke-miterlimit="10"/>
<path d="M44.2261 22.8968C44.273 22.9255 44.3114 22.9568 44.341 22.9906C44.3707 23.0231 44.3917 23.0594 44.4028 23.097C44.4139 23.1345 44.4139 23.1758 44.4028 23.2184C44.3929 23.2622 44.3707 23.3085 44.3361 23.3585C44.2718 23.4524 44.2038 23.5062 44.1322 23.52C44.0605 23.5337 43.9826 23.51 43.8961 23.4511L43.5068 23.1858C43.4908 23.1746 43.4821 23.1646 43.4797 23.1546C43.4772 23.1445 43.4796 23.1345 43.4895 23.1208L43.581 22.9881C43.5909 22.9743 43.5995 22.9668 43.6082 22.9668C43.6168 22.9668 43.6304 22.9706 43.6453 22.9818L44.0234 23.2409C44.0803 23.2784 44.1223 23.2747 44.1519 23.2284C44.1593 23.2159 44.1643 23.2034 44.1643 23.1933C44.1643 23.1821 44.1618 23.1721 44.1544 23.1621C44.1482 23.1533 44.1396 23.1445 44.1272 23.1345C44.1161 23.1258 44.1025 23.1158 44.0877 23.107L43.7219 22.8717C43.7058 22.8617 43.6959 22.8504 43.6947 22.8417C43.6922 22.8317 43.6959 22.8204 43.7046 22.8079L43.796 22.6752C43.8059 22.6615 43.8146 22.6552 43.8232 22.654C43.8319 22.6527 43.8442 22.659 43.8615 22.669L44.2248 22.898L44.2261 22.8968Z" fill="white" stroke="white" stroke-width="0.25" stroke-miterlimit="10"/>
<path d="M44.1951 22.2085C44.1815 22.2022 44.1716 22.1959 44.163 22.1909C44.1556 22.1859 44.1494 22.1809 44.1457 22.1747C44.142 22.1697 44.142 22.1622 44.1432 22.1534C44.1444 22.1446 44.1469 22.1321 44.1506 22.1159C44.1593 22.0833 44.1704 22.0483 44.1852 22.0107C44.2 21.9732 44.2186 21.9369 44.2396 21.9019C44.2606 21.8668 44.2853 21.8343 44.3137 21.8055C44.3422 21.7767 44.3718 21.7529 44.4052 21.7367C44.4386 21.7204 44.4744 21.7129 44.5115 21.7129C44.5485 21.7129 44.5893 21.7241 44.6313 21.7479C44.6635 21.7654 44.6907 21.7842 44.7117 21.8055C44.7327 21.8255 44.7487 21.8468 44.7611 21.8681C44.7735 21.8906 44.7821 21.9119 44.7871 21.9356C44.792 21.9594 44.7957 21.9819 44.7969 22.0045L45.0021 21.9907C45.0231 21.9907 45.0379 21.9945 45.0453 22.0045C45.0528 22.0145 45.0552 22.027 45.0528 22.0408L45.0355 22.1659C45.033 22.1884 45.0268 22.2022 45.0169 22.2085C45.007 22.2147 44.9947 22.2185 44.9811 22.2185H44.7549L44.9106 22.3061C44.9279 22.3161 44.9378 22.3248 44.9415 22.3336C44.9452 22.3424 44.9415 22.3536 44.9354 22.3687L44.8624 22.5038C44.855 22.5176 44.8464 22.5251 44.8377 22.5276C44.8291 22.5301 44.8155 22.5263 44.7982 22.5176L44.1963 22.2122L44.1951 22.2085ZM44.5634 22.1196C44.5831 22.0771 44.5918 22.0433 44.5881 22.0195C44.5844 21.9957 44.5683 21.9757 44.5399 21.9594C44.5238 21.9507 44.509 21.9457 44.4942 21.9469C44.4806 21.9469 44.467 21.9507 44.4559 21.9582C44.4447 21.9657 44.4348 21.9769 44.4274 21.9907C44.42 22.0045 44.4126 22.0195 44.4064 22.037L44.5646 22.1209L44.5634 22.1196Z" fill="white" stroke="white" stroke-width="0.25" stroke-miterlimit="10"/>
<path d="M45.9067 19.917C45.9005 19.9283 45.8931 19.9358 45.8845 19.9383C45.877 19.9408 45.8659 19.9383 45.8523 19.9283L45.2418 19.5316C45.2258 19.5216 45.2146 19.5116 45.2097 19.5015C45.2048 19.4915 45.2035 19.4778 45.2085 19.4603L45.248 19.3026C45.253 19.2851 45.2591 19.2738 45.2678 19.2675C45.2764 19.2613 45.2913 19.2575 45.311 19.2563L46.034 19.2C46.0501 19.2 46.0612 19.2 46.0674 19.2075C46.0735 19.215 46.076 19.2237 46.0772 19.2362L46.0822 19.3814C46.0822 19.4039 46.0711 19.4165 46.0464 19.4177L45.9302 19.424L45.8659 19.6818L45.966 19.7418C45.987 19.7544 45.9907 19.7706 45.9809 19.7906L45.9079 19.9158L45.9067 19.917ZM45.4754 19.4452L45.6731 19.5654L45.7053 19.434L45.4742 19.444L45.4754 19.4452Z" fill="white" stroke="white" stroke-width="0.25" stroke-miterlimit="10"/>
<path d="M45.777 16.8057L45.7795 16.9821C45.7795 16.9984 45.777 17.0097 45.7708 17.0172C45.7647 17.0247 45.7548 17.0285 45.7387 17.0285L45.5966 17.031C45.5805 17.031 45.5706 17.0272 45.5645 17.0197C45.5583 17.0122 45.5558 17.0009 45.5546 16.9847L45.5447 16.3764C45.5447 16.3602 45.5472 16.3489 45.5533 16.3414C45.5595 16.3339 45.5694 16.3301 45.5855 16.3301L45.7276 16.3276C45.7436 16.3276 45.7535 16.3314 45.7597 16.3389C45.7659 16.3464 45.7684 16.3577 45.7696 16.3739L45.7721 16.5579L46.3146 16.5429C46.3344 16.5429 46.3467 16.5454 46.3541 16.5516C46.3615 16.5579 46.3653 16.5692 46.3653 16.5854L46.3677 16.7481C46.3677 16.7644 46.3653 16.7744 46.3578 16.7819C46.3504 16.7882 46.3381 16.7919 46.3183 16.7919L45.7758 16.8069L45.777 16.8057Z" fill="white" stroke="white" stroke-width="0.25" stroke-miterlimit="10"/>
<path d="M45.8425 15.0601C45.9129 15.0513 45.9747 15.0551 46.0291 15.0701C46.0835 15.0851 46.1304 15.1076 46.1687 15.1377C46.2071 15.1689 46.238 15.2065 46.2602 15.2503C46.2824 15.2941 46.2973 15.3404 46.3022 15.3905C46.3084 15.4393 46.3047 15.4881 46.2923 15.5356C46.28 15.5832 46.259 15.627 46.2281 15.6645C46.1972 15.7033 46.1576 15.7371 46.107 15.7634C46.0575 15.7909 45.997 15.8085 45.9265 15.816C45.8561 15.8247 45.7943 15.821 45.7399 15.8059C45.6855 15.7909 45.6386 15.7684 45.6003 15.7371C45.562 15.7071 45.5311 15.6695 45.5088 15.6257C45.4866 15.5819 45.4717 15.5356 45.4668 15.4856C45.4606 15.4368 45.4643 15.388 45.4767 15.3391C45.489 15.2916 45.5101 15.2478 45.541 15.209C45.5718 15.1702 45.6114 15.1377 45.6621 15.1114C45.7115 15.0839 45.772 15.0663 45.8413 15.0588L45.8425 15.0601ZM45.8722 15.3229C45.8079 15.3304 45.7622 15.3454 45.735 15.3692C45.7078 15.393 45.6954 15.423 45.7004 15.4605C45.7041 15.4981 45.7226 15.5244 45.7547 15.5406C45.7869 15.5569 45.8351 15.5607 45.8993 15.5531C45.9636 15.5456 46.0093 15.5306 46.0365 15.5068C46.0637 15.4831 46.0748 15.453 46.0711 15.4155C46.0674 15.3779 46.0489 15.3517 46.0167 15.3354C45.9846 15.3191 45.9376 15.3141 45.8734 15.3216L45.8722 15.3229Z" fill="white" stroke="white" stroke-width="0.25" stroke-miterlimit="10"/>
<path d="M45.3667 12.5721L45.274 12.3306C45.2691 12.3168 45.2678 12.3043 45.2703 12.2955C45.2728 12.2868 45.2814 12.2793 45.2963 12.273L45.4273 12.2204C45.4421 12.2142 45.4532 12.2142 45.4619 12.2192C45.4705 12.2242 45.4779 12.233 45.4829 12.2467L45.6831 12.7648C45.6942 12.7936 45.693 12.8136 45.6794 12.8249C45.6658 12.8362 45.646 12.8399 45.6213 12.8362L45.0368 12.7435L45.1381 13.0051C45.1443 13.0201 45.1455 13.0314 45.1418 13.0414C45.1393 13.0502 45.1307 13.0577 45.1158 13.0639L44.9848 13.1165C44.97 13.1227 44.9589 13.1227 44.9502 13.1177C44.9416 13.1127 44.9354 13.1027 44.9292 13.089L44.7216 12.5508C44.7105 12.5233 44.7117 12.5033 44.7253 12.4908C44.7389 12.4795 44.7587 12.4757 44.7834 12.4795L45.3667 12.5721Z" fill="white" stroke="white" stroke-width="0.25" stroke-miterlimit="10"/>
</svg>
